<svg width="28" height="26" viewBox="0 0 28 26" fill="none" xmlns="http://www.w3.org/2000/svg">
<path d="M8.4 12.5768C8.79667 12.5768 9.1294 12.4426 9.3982 12.1743C9.66607 11.9069 9.8 11.5753 9.8 11.1794C9.8 10.7834 9.66607 10.4513 9.3982 10.183C9.1294 9.91562 8.79667 9.78194 8.4 9.78194C8.00333 9.78194 7.6706 9.91562 7.4018 10.183C7.13393 10.4513 7 10.7834 7 11.1794C7 11.5753 7.13393 11.9069 7.4018 12.1743C7.6706 12.4426 8.00333 12.5768 8.4 12.5768ZM14 12.5768C14.3967 12.5768 14.7294 12.4426 14.9982 12.1743C15.2661 11.9069 15.4 11.5753 15.4 11.1794C15.4 10.7834 15.2661 10.4513 14.9982 10.183C14.7294 9.91562 14.3967 9.78194 14 9.78194C13.6033 9.78194 13.2711 9.91562 13.0032 10.183C12.7344 10.4513 12.6 10.7834 12.6 11.1794C12.6 11.5753 12.7344 11.9069 13.0032 12.1743C13.2711 12.4426 13.6033 12.5768 14 12.5768ZM19.6 12.5768C19.9967 12.5768 20.3289 12.4426 20.5968 12.1743C20.8656 11.9069 21 11.5753 21 11.1794C21 10.7834 20.8656 10.4513 20.5968 10.183C20.3289 9.91562 19.9967 9.78194 19.6 9.78194C19.2033 9.78194 18.8711 9.91562 18.6032 10.183C18.3344 10.4513 18.2 10.7834 18.2 11.1794C18.2 11.5753 18.3344 11.9069 18.6032 12.1743C18.8711 12.4426 19.2033 12.5768 19.6 12.5768ZM0 24.5596V2.79484C0 2.02626 0.2744 1.36807 0.8232 0.820285C1.37107 0.273428 2.03 0 2.8 0H25.2C25.97 0 26.6294 0.273428 27.1782 0.820285C27.7261 1.36807 28 2.02626 28 2.79484V19.5639C28 20.3325 27.7261 20.9906 27.1782 21.5384C26.6294 22.0853 25.97 22.3587 25.2 22.3587H5.6L2.38 25.5728C1.93667 26.0153 1.42893 26.114 0.8568 25.869C0.2856 25.6249 0 25.1885 0 24.5596Z" fill="#6BCAB8"/>
</svg>
