<svg width="28" height="28" viewBox="0 0 28 28" fill="none" xmlns="http://www.w3.org/2000/svg">
<path d="M10.9667 14.4667C11.338 14.4667 11.694 14.3192 11.9566 14.0566C12.2192 13.7941 12.3667 13.438 12.3667 13.0667C12.3667 12.6954 12.2192 12.3393 11.9566 12.0767C11.694 11.8142 11.338 11.6667 10.9667 11.6667C10.5953 11.6667 10.2393 11.8142 9.9767 12.0767C9.71415 12.3393 9.56665 12.6954 9.56665 13.0667C9.56665 13.438 9.71415 13.7941 9.9767 14.0566C10.2393 14.3192 10.5953 14.4667 10.9667 14.4667ZM20.7667 13.0667C20.7667 13.438 20.6192 13.7941 20.3566 14.0566C20.094 14.3192 19.738 14.4667 19.3667 14.4667C18.9953 14.4667 18.6393 14.3192 18.3767 14.0566C18.1142 13.7941 17.9667 13.438 17.9667 13.0667C17.9667 12.6954 18.1142 12.3393 18.3767 12.0767C18.6393 11.8142 18.9953 11.6667 19.3667 11.6667C19.738 11.6667 20.094 11.8142 20.3566 12.0767C20.6192 12.3393 20.7667 12.6954 20.7667 13.0667Z" fill="#6BCAB8"/>
<path fill-rule="evenodd" clip-rule="evenodd" d="M14 28C21.7322 28 28 21.7322 28 14C28 6.2678 21.7322 0 14 0C6.2678 0 0 6.2678 0 14C0 21.7322 6.2678 28 14 28ZM14 25.2C15.7588 25.2005 17.493 24.7869 19.0622 23.9925C20.6314 23.1981 21.9914 22.0452 23.0322 20.6274C24.0729 19.2096 24.7651 17.5666 25.0527 15.8314C25.3403 14.0963 25.2152 12.3178 24.6876 10.64C23.5186 10.9564 22.2894 11.1244 21.021 11.1244C18.5485 11.1253 16.12 10.4712 13.9825 9.22856C11.845 7.98594 10.0748 6.19921 8.8522 4.0502C6.62177 5.2029 4.84333 7.0716 3.80236 9.35631C2.76139 11.641 2.51827 14.2093 3.11203 16.6487C3.70579 19.0882 5.10199 21.2574 7.0765 22.8082C9.05101 24.3589 11.4893 25.2013 14 25.2Z" fill="#6BCAB8"/>
</svg>
