<svg width="28" height="28" viewBox="0 0 28 28" fill="none" xmlns="http://www.w3.org/2000/svg">
<path d="M9.25 15.75H6.75C6.3375 15.75 6 15.4547 6 15.0937V12.9062C6 12.5453 6.3375 12.25 6.75 12.25H9.25C9.6625 12.25 10 12.5453 10 12.9062V15.0937C10 15.4547 9.6625 15.75 9.25 15.75ZM16 15.0937V12.9062C16 12.5453 15.6625 12.25 15.25 12.25H12.75C12.3375 12.25 12 12.5453 12 12.9062V15.0937C12 15.4547 12.3375 15.75 12.75 15.75H15.25C15.6625 15.75 16 15.4547 16 15.0937ZM22 15.0937V12.9062C22 12.5453 21.6625 12.25 21.25 12.25H18.75C18.3375 12.25 18 12.5453 18 12.9062V15.0937C18 15.4547 18.3375 15.75 18.75 15.75H21.25C21.6625 15.75 22 15.4547 22 15.0937ZM16 20.3438V18.1562C16 17.7953 15.6625 17.5 15.25 17.5H12.75C12.3375 17.5 12 17.7953 12 18.1562V20.3438C12 20.7047 12.3375 21 12.75 21H15.25C15.6625 21 16 20.7047 16 20.3438ZM10 20.3438V18.1562C10 17.7953 9.6625 17.5 9.25 17.5H6.75C6.3375 17.5 6 17.7953 6 18.1562V20.3438C6 20.7047 6.3375 21 6.75 21H9.25C9.6625 21 10 20.7047 10 20.3438ZM22 20.3438V18.1562C22 17.7953 21.6625 17.5 21.25 17.5H18.75C18.3375 17.5 18 17.7953 18 18.1562V20.3438C18 20.7047 18.3375 21 18.75 21H21.25C21.6625 21 22 20.7047 22 20.3438ZM28 6.125V25.375C28 26.8242 26.6562 28 25 28H3C1.34375 28 0 26.8242 0 25.375V6.125C0 4.67578 1.34375 3.5 3 3.5H6V0.65625C6 0.295312 6.3375 0 6.75 0H9.25C9.6625 0 10 0.295312 10 0.65625V3.5H18V0.65625C18 0.295312 18.3375 0 18.75 0H21.25C21.6625 0 22 0.295312 22 0.65625V3.5H25C26.6562 3.5 28 4.67578 28 6.125ZM25 25.0469V8.75H3V25.0469C3 25.2273 3.16875 25.375 3.375 25.375H24.625C24.8312 25.375 25 25.2273 25 25.0469Z" fill="#6BCAB8"/>
</svg>
