<svg width="381" height="124" viewBox="0 0 381 124" fill="none" xmlns="http://www.w3.org/2000/svg">
<rect width="380.237" height="123.938" rx="13" fill="white"/>
<path d="M20.7408 97.9661C19.8091 97.9661 19.0226 97.7602 18.3813 97.3486C17.7399 96.9326 17.2546 96.3584 16.9253 95.6261C16.5959 94.8937 16.4313 94.0487 16.4313 93.0911C16.4313 92.1334 16.5959 91.2884 16.9253 90.5561C17.2546 89.8237 17.7399 89.2517 18.3813 88.8401C19.0226 88.4241 19.8091 88.2161 20.7408 88.2161C21.8284 88.2161 22.7168 88.4956 23.4058 89.0546C24.0948 89.6092 24.5671 90.3546 24.8228 91.2906L23.8478 91.5441C23.6484 90.8031 23.2909 90.2159 22.7753 89.7826C22.2596 89.3492 21.5814 89.1326 20.7408 89.1326C20.0084 89.1326 19.3996 89.2994 18.9143 89.6331C18.4289 89.9667 18.0628 90.4326 17.8158 91.0306C17.5731 91.6242 17.4474 92.3111 17.4388 93.0911C17.4344 93.8711 17.5536 94.5579 17.7963 95.1516C18.0433 95.7452 18.4116 96.2111 18.9013 96.5491C19.3953 96.8827 20.0084 97.0496 20.7408 97.0496C21.5814 97.0496 22.2596 96.8329 22.7753 96.3996C23.2909 95.9619 23.6484 95.3747 23.8478 94.6381L24.8228 94.8916C24.5671 95.8276 24.0948 96.5751 23.4058 97.1341C22.7168 97.6887 21.8284 97.9661 20.7408 97.9661ZM29.1884 97.9661C28.4908 97.9661 27.8949 97.8079 27.4009 97.4916C26.9069 97.1752 26.5278 96.7376 26.2634 96.1786C25.9991 95.6196 25.8669 94.9782 25.8669 94.2546C25.8669 93.5179 26.0013 92.8722 26.2699 92.3176C26.5386 91.7629 26.9199 91.3317 27.4139 91.0241C27.9123 90.7121 28.5038 90.5561 29.1884 90.5561C29.8904 90.5561 30.4884 90.7142 30.9824 91.0306C31.4808 91.3426 31.8599 91.7781 32.1199 92.3371C32.3843 92.8917 32.5164 93.5309 32.5164 94.2546C32.5164 94.9912 32.3843 95.6391 32.1199 96.1981C31.8556 96.7527 31.4743 97.1861 30.9759 97.4981C30.4776 97.8101 29.8818 97.9661 29.1884 97.9661ZM29.1884 97.0496C29.9684 97.0496 30.5491 96.7917 30.9304 96.2761C31.3118 95.7561 31.5024 95.0822 31.5024 94.2546C31.5024 93.4052 31.3096 92.7292 30.9239 92.2266C30.5426 91.7239 29.9641 91.4726 29.1884 91.4726C28.6641 91.4726 28.2308 91.5917 27.8884 91.8301C27.5504 92.0641 27.2969 92.3912 27.1279 92.8116C26.9633 93.2276 26.8809 93.7086 26.8809 94.2546C26.8809 95.0996 27.0759 95.7777 27.4659 96.2891C27.8559 96.7961 28.4301 97.0496 29.1884 97.0496ZM39.0203 97.7711V94.1896C39.0203 93.7996 38.9835 93.4421 38.9098 93.1171C38.8361 92.7877 38.717 92.5017 38.5523 92.2591C38.392 92.0121 38.1818 91.8214 37.9218 91.6871C37.6661 91.5527 37.3541 91.4856 36.9858 91.4856C36.6478 91.4856 36.3488 91.5441 36.0888 91.6611C35.8331 91.7781 35.6165 91.9471 35.4388 92.1681C35.2655 92.3847 35.1333 92.6491 35.0423 92.9611C34.9513 93.2731 34.9058 93.6284 34.9058 94.0271L34.2298 93.8776C34.2298 93.1582 34.3554 92.5537 34.6068 92.0641C34.8581 91.5744 35.2048 91.2039 35.6468 90.9526C36.0888 90.7012 36.5958 90.5756 37.1678 90.5756C37.5881 90.5756 37.9543 90.6406 38.2663 90.7706C38.5826 90.9006 38.8491 91.0761 39.0658 91.2971C39.2868 91.5181 39.4645 91.7716 39.5988 92.0576C39.7331 92.3392 39.8306 92.6404 39.8913 92.9611C39.952 93.2774 39.9823 93.5937 39.9823 93.9101V97.7711H39.0203ZM33.9438 97.7711V90.7511H34.8083V92.4801H34.9058V97.7711H33.9438ZM44.2885 97.9596C43.4652 97.9596 42.787 97.7819 42.254 97.4266C41.7254 97.0712 41.4004 96.5772 41.279 95.9446L42.254 95.7821C42.358 96.1807 42.5942 96.4992 42.9625 96.7376C43.3352 96.9716 43.7945 97.0886 44.3405 97.0886C44.8735 97.0886 45.2939 96.9781 45.6015 96.7571C45.9092 96.5317 46.063 96.2262 46.063 95.8406C46.063 95.6239 46.0132 95.4484 45.9135 95.3141C45.8182 95.1754 45.621 95.0476 45.322 94.9306C45.023 94.8136 44.5767 94.6749 43.983 94.5146C43.346 94.3412 42.8477 94.1679 42.488 93.9946C42.1284 93.8212 41.8727 93.6219 41.721 93.3966C41.5694 93.1669 41.4935 92.8874 41.4935 92.5581C41.4935 92.1594 41.6062 91.8106 41.8315 91.5116C42.0569 91.2082 42.3689 90.9742 42.7675 90.8096C43.1662 90.6406 43.6299 90.5561 44.1585 90.5561C44.6872 90.5561 45.1595 90.6427 45.5755 90.8161C45.9959 90.9851 46.3339 91.2234 46.5895 91.5311C46.8452 91.8387 46.9969 92.1962 47.0445 92.6036L46.0695 92.7791C46.0045 92.3674 45.7987 92.0424 45.452 91.8041C45.1097 91.5614 44.6742 91.4357 44.1455 91.4271C43.6472 91.4141 43.242 91.5094 42.93 91.7131C42.618 91.9124 42.462 92.1789 42.462 92.5126C42.462 92.6989 42.5184 92.8592 42.631 92.9936C42.7437 93.1236 42.9474 93.2471 43.242 93.3641C43.541 93.4811 43.9657 93.6089 44.516 93.7476C45.1617 93.9122 45.6687 94.0856 46.037 94.2676C46.4054 94.4496 46.6675 94.6641 46.8235 94.9111C46.9795 95.1581 47.0575 95.4636 47.0575 95.8276C47.0575 96.4906 46.8105 97.0127 46.3165 97.3941C45.8269 97.7711 45.1509 97.9596 44.2885 97.9596ZM51.1836 97.9466C50.7633 97.9466 50.3949 97.8816 50.0786 97.7516C49.7666 97.6216 49.5001 97.4461 49.2791 97.2251C49.0624 97.0041 48.8869 96.7527 48.7526 96.4711C48.6183 96.1851 48.5208 95.8839 48.4601 95.5676C48.3994 95.2469 48.3691 94.9284 48.3691 94.6121V90.7511H49.3311V94.3326C49.3311 94.7182 49.3679 95.0757 49.4416 95.4051C49.5153 95.7344 49.6323 96.0226 49.7926 96.2696C49.9573 96.5122 50.1674 96.7007 50.4231 96.8351C50.6831 96.9694 50.9973 97.0366 51.3656 97.0366C51.7036 97.0366 52.0004 96.9781 52.2561 96.8611C52.5161 96.7441 52.7328 96.5772 52.9061 96.3606C53.0838 96.1396 53.2181 95.8731 53.3091 95.5611C53.4001 95.2447 53.4456 94.8894 53.4456 94.4951L54.1216 94.6446C54.1216 95.3639 53.9959 95.9684 53.7446 96.4581C53.4933 96.9477 53.1466 97.3182 52.7046 97.5696C52.2626 97.8209 51.7556 97.9466 51.1836 97.9466ZM53.5431 97.7711V96.0421H53.4456V90.7511H54.4011V97.7711H53.5431ZM56.3479 97.7711V88.2161H57.3034V97.7711H56.3479ZM63.074 97.7711C62.6797 97.8534 62.2897 97.8859 61.904 97.8686C61.5227 97.8512 61.1804 97.7689 60.877 97.6216C60.578 97.4742 60.3505 97.2446 60.1945 96.9326C60.0689 96.6726 59.9995 96.4104 59.9865 96.1461C59.9779 95.8774 59.9735 95.5719 59.9735 95.2296V88.8011H60.9225V95.1906C60.9225 95.4852 60.9247 95.7322 60.929 95.9316C60.9377 96.1266 60.9832 96.2999 61.0655 96.4516C61.2215 96.7419 61.4685 96.9152 61.8065 96.9716C62.1489 97.0279 62.5714 97.0149 63.074 96.9326V97.7711ZM58.472 91.5701V90.7511H63.074V91.5701H58.472ZM66.4656 97.9661C65.937 97.9661 65.4928 97.8707 65.1331 97.6801C64.7778 97.4894 64.5113 97.2359 64.3336 96.9196C64.156 96.6032 64.0671 96.2587 64.0671 95.8861C64.0671 95.5047 64.143 95.1797 64.2946 94.9111C64.4506 94.6381 64.6608 94.4149 64.9251 94.2416C65.1938 94.0682 65.5036 93.9361 65.8546 93.8451C66.21 93.7584 66.6021 93.6826 67.0311 93.6176C67.4645 93.5482 67.887 93.4897 68.2986 93.4421C68.7146 93.3901 69.0786 93.3402 69.3906 93.2926L69.0526 93.5006C69.0656 92.8072 68.9313 92.2937 68.6496 91.9601C68.368 91.6264 67.8783 91.4596 67.1806 91.4596C66.6996 91.4596 66.2923 91.5679 65.9586 91.7846C65.6293 92.0012 65.3975 92.3436 65.2631 92.8116L64.3336 92.5386C64.494 91.9102 64.8168 91.4227 65.3021 91.0761C65.7875 90.7294 66.418 90.5561 67.1936 90.5561C67.835 90.5561 68.3788 90.6774 68.8251 90.9201C69.2758 91.1584 69.5943 91.5051 69.7806 91.9601C69.8673 92.1637 69.9236 92.3912 69.9496 92.6426C69.9756 92.8939 69.9886 93.1496 69.9886 93.4096V97.7711H69.1371V96.0096L69.3841 96.1136C69.1458 96.7159 68.7753 97.1752 68.2726 97.4916C67.77 97.8079 67.1676 97.9661 66.4656 97.9661ZM66.5761 97.1406C67.0225 97.1406 67.4125 97.0604 67.7461 96.9001C68.0798 96.7397 68.3485 96.5209 68.5521 96.2436C68.7558 95.9619 68.888 95.6456 68.9486 95.2946C69.0006 95.0692 69.0288 94.8222 69.0331 94.5536C69.0375 94.2806 69.0396 94.0769 69.0396 93.9426L69.4036 94.1311C69.0786 94.1744 68.7255 94.2177 68.3441 94.2611C67.9671 94.3044 67.5945 94.3542 67.2261 94.4106C66.8621 94.4669 66.5328 94.5341 66.2381 94.6121C66.0388 94.6684 65.846 94.7486 65.6596 94.8526C65.4733 94.9522 65.3195 95.0866 65.1981 95.2556C65.0811 95.4246 65.0226 95.6347 65.0226 95.8861C65.0226 96.0897 65.0725 96.2869 65.1721 96.4776C65.2761 96.6682 65.4408 96.8264 65.6661 96.9521C65.8958 97.0777 66.1991 97.1406 66.5761 97.1406ZM76.7508 97.7711V94.1896C76.7508 93.7996 76.7139 93.4421 76.6403 93.1171C76.5666 92.7877 76.4474 92.5017 76.2828 92.2591C76.1224 92.0121 75.9123 91.8214 75.6523 91.6871C75.3966 91.5527 75.0846 91.4856 74.7163 91.4856C74.3783 91.4856 74.0793 91.5441 73.8193 91.6611C73.5636 91.7781 73.3469 91.9471 73.1693 92.1681C72.9959 92.3847 72.8638 92.6491 72.7728 92.9611C72.6818 93.2731 72.6363 93.6284 72.6363 94.0271L71.9603 93.8776C71.9603 93.1582 72.0859 92.5537 72.3373 92.0641C72.5886 91.5744 72.9353 91.2039 73.3773 90.9526C73.8193 90.7012 74.3263 90.5756 74.8983 90.5756C75.3186 90.5756 75.6848 90.6406 75.9968 90.7706C76.3131 90.9006 76.5796 91.0761 76.7963 91.2971C77.0173 91.5181 77.1949 91.7716 77.3293 92.0576C77.4636 92.3392 77.5611 92.6404 77.6218 92.9611C77.6824 93.2774 77.7128 93.5937 77.7128 93.9101V97.7711H76.7508ZM71.6743 97.7711V90.7511H72.5388V92.4801H72.6363V97.7711H71.6743ZM82.2734 97.9661C81.5671 97.9661 80.9691 97.8079 80.4794 97.4916C79.9897 97.1752 79.6171 96.7397 79.3614 96.1851C79.1101 95.6261 78.9801 94.9847 78.9714 94.2611C78.9801 93.5244 79.1144 92.8787 79.3744 92.3241C79.6344 91.7651 80.0092 91.3317 80.4989 91.0241C80.9886 90.7121 81.5822 90.5561 82.2799 90.5561C82.9906 90.5561 83.6081 90.7294 84.1324 91.0761C84.6611 91.4227 85.0229 91.8972 85.2179 92.4996L84.2819 92.7986C84.1172 92.3782 83.8551 92.0532 83.4954 91.8236C83.1401 91.5896 82.7327 91.4726 82.2734 91.4726C81.7577 91.4726 81.3309 91.5917 80.9929 91.8301C80.6549 92.0641 80.4036 92.3912 80.2389 92.8116C80.0742 93.2319 79.9897 93.7151 79.9854 94.2611C79.9941 95.1017 80.1891 95.7777 80.5704 96.2891C80.9517 96.7961 81.5194 97.0496 82.2734 97.0496C82.7501 97.0496 83.1552 96.9412 83.4889 96.7246C83.8269 96.5036 84.0826 96.1829 84.2559 95.7626L85.2179 96.0486C84.9579 96.6726 84.5766 97.1492 84.0739 97.4786C83.5712 97.8036 82.9711 97.9661 82.2734 97.9661ZM87.3068 100.891L88.6653 97.2056L88.6848 98.2976L85.6103 90.7511H86.6243L89.1463 97.0626H88.7303L91.0573 90.7511H92.0323L88.2623 100.891H87.3068Z" fill="black"/>
<rect x="26.7354" y="20.2001" width="61.1944" height="61.1944" rx="8" fill="#6BCBB8"/>
<g clip-path="url(#clip0_9_69)">
<path d="M57.6298 50.6264C63.0678 50.6264 67.4752 46.2098 67.4752 40.7604C67.4752 35.3109 63.0678 30.8943 57.6298 30.8943C52.1917 30.8943 47.7843 35.3109 47.7843 40.7604C47.7843 46.2098 52.1917 50.6264 57.6298 50.6264ZM50.2457 54.8812C44.5538 56.5538 40.4003 61.8259 40.4003 68.0693C40.4003 69.3334 41.4233 70.3585 42.6847 70.3585H72.5748C73.8363 70.3585 74.8593 69.3334 74.8593 68.0693C74.8593 61.8259 70.7057 56.5538 65.0138 54.8812V58.7967C67.1368 59.344 68.7059 61.2787 68.7059 63.5756V66.6588C68.7059 67.3371 68.1521 67.892 67.4752 67.892H66.2445C65.5676 67.892 65.0138 67.3371 65.0138 66.6588C65.0138 65.9805 65.5676 65.4255 66.2445 65.4255V63.5756C66.2445 62.2113 65.1446 61.1091 63.7832 61.1091C62.4217 61.1091 61.3218 62.2113 61.3218 63.5756V65.4255C61.9987 65.4255 62.5525 65.9805 62.5525 66.6588C62.5525 67.3371 61.9987 67.892 61.3218 67.892H60.0911C59.4143 67.892 58.8605 67.3371 58.8605 66.6588V63.5756C58.8605 61.2787 60.4296 59.344 62.5525 58.7967V54.3956C62.091 54.3493 61.6218 54.3262 61.1449 54.3262H54.1146C53.6378 54.3262 53.1686 54.3493 52.7071 54.3956V59.4365C54.4838 59.9683 55.7838 61.6178 55.7838 63.5756C55.7838 65.9573 53.8531 67.892 51.4764 67.892C49.0996 67.892 47.169 65.9573 47.169 63.5756C47.169 61.6178 48.4689 59.9683 50.2457 59.4365V54.8812ZM51.4764 65.4255C52.4994 65.4255 53.3224 64.6008 53.3224 63.5756C53.3224 62.5505 52.4994 61.7257 51.4764 61.7257C50.4534 61.7257 49.6304 62.5505 49.6304 63.5756C49.6304 64.6008 50.4534 65.4255 51.4764 65.4255Z" fill="white"/>
</g>
<path d="M153.16 98.195C152.506 98.195 151.916 98.0867 151.392 97.87C150.872 97.649 150.441 97.337 150.099 96.934C149.761 96.531 149.54 96.0522 149.436 95.4975L150.411 95.335C150.567 95.9417 150.896 96.4183 151.399 96.765C151.901 97.1073 152.501 97.2785 153.199 97.2785C153.658 97.2785 154.07 97.207 154.434 97.064C154.798 96.9167 155.084 96.7087 155.292 96.44C155.5 96.1713 155.604 95.8528 155.604 95.4845C155.604 95.2418 155.561 95.036 155.474 94.867C155.387 94.6937 155.273 94.5507 155.13 94.438C154.987 94.3253 154.831 94.2322 154.662 94.1585C154.493 94.0805 154.328 94.0177 154.168 93.97L151.795 93.2615C151.509 93.1792 151.245 93.0752 151.002 92.9495C150.759 92.8195 150.547 92.6657 150.365 92.488C150.187 92.306 150.049 92.0937 149.949 91.851C149.849 91.6083 149.8 91.331 149.8 91.019C149.8 90.4903 149.938 90.0332 150.216 89.6475C150.493 89.2618 150.872 88.965 151.353 88.757C151.834 88.549 152.382 88.4472 152.998 88.4515C153.622 88.4515 154.178 88.562 154.668 88.783C155.162 89.004 155.569 89.3203 155.89 89.732C156.211 90.1393 156.423 90.6225 156.527 91.1815L155.526 91.3635C155.461 90.9562 155.312 90.603 155.078 90.304C154.844 90.005 154.545 89.7753 154.181 89.615C153.821 89.4503 153.424 89.3658 152.991 89.3615C152.571 89.3615 152.196 89.433 151.867 89.576C151.542 89.7147 151.284 89.9053 151.093 90.148C150.902 90.3907 150.807 90.668 150.807 90.98C150.807 91.2963 150.894 91.5498 151.067 91.7405C151.245 91.9312 151.461 92.0807 151.717 92.189C151.977 92.2973 152.228 92.3862 152.471 92.4555L154.304 92.995C154.495 93.047 154.718 93.1228 154.974 93.2225C155.234 93.3178 155.485 93.4565 155.728 93.6385C155.975 93.8162 156.178 94.0502 156.339 94.3405C156.499 94.6308 156.579 94.9992 156.579 95.4455C156.579 95.8788 156.492 96.2667 156.319 96.609C156.15 96.9513 155.91 97.2395 155.598 97.4735C155.29 97.7075 154.928 97.8852 154.512 98.0065C154.1 98.1322 153.65 98.195 153.16 98.195ZM160.833 98.195C160.126 98.195 159.528 98.0368 159.039 97.7205C158.549 97.4042 158.176 96.9687 157.921 96.414C157.669 95.855 157.539 95.2137 157.531 94.49C157.539 93.7533 157.674 93.1077 157.934 92.553C158.194 91.994 158.569 91.5607 159.058 91.253C159.548 90.941 160.142 90.785 160.839 90.785C161.55 90.785 162.167 90.9583 162.692 91.305C163.22 91.6517 163.582 92.1262 163.777 92.7285L162.841 93.0275C162.677 92.6072 162.414 92.2822 162.055 92.0525C161.699 91.8185 161.292 91.7015 160.833 91.7015C160.317 91.7015 159.89 91.8207 159.552 92.059C159.214 92.293 158.963 92.6202 158.798 93.0405C158.634 93.4608 158.549 93.944 158.545 94.49C158.553 95.3307 158.748 96.0067 159.13 96.518C159.511 97.025 160.079 97.2785 160.833 97.2785C161.309 97.2785 161.715 97.1702 162.048 96.9535C162.386 96.7325 162.642 96.4118 162.815 95.9915L163.777 96.2775C163.517 96.9015 163.136 97.3782 162.633 97.7075C162.131 98.0325 161.53 98.195 160.833 98.195ZM170.189 98V94.4185C170.189 94.0285 170.152 93.671 170.078 93.346C170.005 93.0167 169.886 92.7307 169.721 92.488C169.561 92.241 169.35 92.0503 169.09 91.916C168.835 91.7817 168.523 91.7145 168.154 91.7145C167.816 91.7145 167.517 91.773 167.257 91.89C167.002 92.007 166.785 92.176 166.607 92.397C166.434 92.6137 166.302 92.878 166.211 93.19C166.12 93.502 166.074 93.8573 166.074 94.256L165.398 94.1065C165.398 93.3872 165.524 92.7827 165.775 92.293C166.027 91.8033 166.373 91.4328 166.815 91.1815C167.257 90.9302 167.764 90.8045 168.336 90.8045C168.757 90.8045 169.123 90.8695 169.435 90.9995C169.751 91.1295 170.018 91.305 170.234 91.526C170.455 91.747 170.633 92.0005 170.767 92.2865C170.902 92.5682 170.999 92.8693 171.06 93.19C171.121 93.5063 171.151 93.8227 171.151 94.139V98H170.189ZM165.112 98V88.64H165.977V93.9245H166.074V98H165.112ZM175.808 98.195C175.124 98.195 174.53 98.0433 174.027 97.74C173.529 97.4367 173.141 97.0098 172.864 96.4595C172.586 95.9092 172.448 95.2635 172.448 94.5225C172.448 93.7555 172.584 93.0925 172.857 92.5335C173.13 91.9745 173.514 91.5433 174.008 91.24C174.506 90.9367 175.093 90.785 175.769 90.785C176.463 90.785 177.054 90.9453 177.544 91.266C178.033 91.5823 178.404 92.0373 178.655 92.631C178.907 93.2247 179.021 93.9332 179 94.7565H178.025V94.4185C178.007 93.5085 177.81 92.8217 177.433 92.358C177.061 91.8943 176.515 91.6625 175.795 91.6625C175.041 91.6625 174.463 91.9073 174.06 92.397C173.661 92.8867 173.462 93.5843 173.462 94.49C173.462 95.374 173.661 96.0608 174.06 96.5505C174.463 97.0358 175.033 97.2785 175.769 97.2785C176.272 97.2785 176.71 97.1637 177.082 96.934C177.459 96.7 177.756 96.3642 177.973 95.9265L178.863 96.271C178.586 96.882 178.176 97.3565 177.635 97.6945C177.097 98.0282 176.489 98.195 175.808 98.195ZM173.124 94.7565V93.957H178.486V94.7565H173.124ZM183.166 98.195C182.511 98.195 181.952 98.0325 181.489 97.7075C181.025 97.3782 180.67 96.934 180.423 96.375C180.176 95.816 180.052 95.1855 180.052 94.4835C180.052 93.7858 180.174 93.1575 180.416 92.5985C180.663 92.0395 181.016 91.5975 181.476 91.2725C181.935 90.9475 182.485 90.785 183.127 90.785C183.785 90.785 184.34 90.9453 184.791 91.266C185.241 91.5867 185.582 92.0265 185.811 92.5855C186.045 93.1402 186.162 93.7728 186.162 94.4835C186.162 95.1812 186.047 95.8117 185.818 96.375C185.588 96.934 185.25 97.3782 184.804 97.7075C184.357 98.0325 183.811 98.195 183.166 98.195ZM183.263 97.3045C183.762 97.3045 184.173 97.1832 184.498 96.9405C184.823 96.6978 185.066 96.3642 185.226 95.9395C185.387 95.5105 185.467 95.0252 185.467 94.4835C185.467 93.9332 185.387 93.4478 185.226 93.0275C185.066 92.6028 184.823 92.2713 184.498 92.033C184.178 91.7947 183.772 91.6755 183.283 91.6755C182.78 91.6755 182.364 91.799 182.035 92.046C181.705 92.293 181.461 92.6288 181.3 93.0535C181.144 93.4782 181.066 93.9548 181.066 94.4835C181.066 95.0165 181.146 95.4975 181.307 95.9265C181.471 96.3512 181.716 96.687 182.041 96.934C182.366 97.181 182.774 97.3045 183.263 97.3045ZM185.467 98V92.7155H185.363V88.64H186.325V98H185.467ZM190.833 98.1755C190.412 98.1755 190.044 98.1105 189.728 97.9805C189.416 97.8505 189.149 97.675 188.928 97.454C188.712 97.233 188.536 96.9817 188.402 96.7C188.267 96.414 188.17 96.1128 188.109 95.7965C188.049 95.4758 188.018 95.1573 188.018 94.841V90.98H188.98V94.5615C188.98 94.9472 189.017 95.3047 189.091 95.634C189.164 95.9633 189.281 96.2515 189.442 96.4985C189.606 96.7412 189.817 96.9297 190.072 97.064C190.332 97.1983 190.646 97.2655 191.015 97.2655C191.353 97.2655 191.65 97.207 191.905 97.09C192.165 96.973 192.382 96.8062 192.555 96.5895C192.733 96.3685 192.867 96.102 192.958 95.79C193.049 95.4737 193.095 95.1183 193.095 94.724L193.771 94.8735C193.771 95.5928 193.645 96.1973 193.394 96.687C193.142 97.1767 192.796 97.5472 192.354 97.7985C191.912 98.0498 191.405 98.1755 190.833 98.1755ZM193.192 98V96.271H193.095V90.98H194.05V98H193.192ZM195.997 98V88.445H196.953V98H195.997ZM201.872 98.195C201.187 98.195 200.593 98.0433 200.091 97.74C199.592 97.4367 199.205 97.0098 198.927 96.4595C198.65 95.9092 198.511 95.2635 198.511 94.5225C198.511 93.7555 198.648 93.0925 198.921 92.5335C199.194 91.9745 199.577 91.5433 200.071 91.24C200.57 90.9367 201.157 90.785 201.833 90.785C202.526 90.785 203.118 90.9453 203.607 91.266C204.097 91.5823 204.467 92.0373 204.719 92.631C204.97 93.2247 205.085 93.9332 205.063 94.7565H204.088V94.4185C204.071 93.5085 203.874 92.8217 203.497 92.358C203.124 91.8943 202.578 91.6625 201.859 91.6625C201.105 91.6625 200.526 91.9073 200.123 92.397C199.725 92.8867 199.525 93.5843 199.525 94.49C199.525 95.374 199.725 96.0608 200.123 96.5505C200.526 97.0358 201.096 97.2785 201.833 97.2785C202.335 97.2785 202.773 97.1637 203.146 96.934C203.523 96.7 203.82 96.3642 204.036 95.9265L204.927 96.271C204.649 96.882 204.24 97.3565 203.698 97.6945C203.161 98.0282 202.552 98.195 201.872 98.195ZM199.187 94.7565V93.957H204.55V94.7565H199.187Z" fill="black"/>
<rect x="147.342" y="20.2001" width="61.1944" height="61.1944" rx="8" fill="#6BCBB8"/>
<path d="M184.667 36C185.075 36 185.469 36.1349 185.774 36.3791C186.079 36.6232 186.274 36.9596 186.322 37.3245L186.333 37.5V39H188C189.275 38.9999 190.503 39.4385 191.43 40.2259C192.358 41.0134 192.917 42.0902 192.992 43.236L193 43.5V61.5C193 62.6478 192.513 63.7523 191.638 64.5874C190.763 65.4225 189.566 65.9252 188.293 65.9925L188 66H168C166.725 66.0001 165.497 65.5615 164.57 64.7741C163.642 63.9866 163.083 62.9098 163.008 61.764L163 61.5V43.5C163 42.3522 163.487 41.2477 164.362 40.4126C165.237 39.5775 166.434 39.0748 167.707 39.0075L168 39H169.667V37.5C169.667 37.1177 169.83 36.75 170.121 36.4719C170.413 36.1939 170.812 36.0266 171.236 36.0042C171.66 35.9818 172.077 36.106 172.403 36.3514C172.729 36.5968 172.938 36.9449 172.988 37.3245L173 37.5V39H183V37.5C183 37.1022 183.176 36.7206 183.488 36.4393C183.801 36.158 184.225 36 184.667 36ZM189.667 46.5H166.333V60.9375C166.333 61.995 166.977 62.8665 167.805 62.9865L168 63H188C188.855 63 189.56 62.205 189.655 61.1775L189.667 60.9375V46.5Z" fill="white"/>
<path d="M178 51C178.408 51 178.802 51.1349 179.107 51.3791C179.412 51.6232 179.607 51.9596 179.655 52.3245L179.667 52.5V57C179.666 57.3823 179.504 57.75 179.212 58.0281C178.92 58.3061 178.522 58.4734 178.098 58.4958C177.674 58.5182 177.256 58.394 176.93 58.1486C176.605 57.9032 176.395 57.5551 176.345 57.1755L176.333 57V54C175.909 53.9996 175.5 53.8532 175.191 53.5907C174.882 53.3283 174.696 52.9696 174.671 52.5879C174.646 52.2062 174.784 51.8304 175.057 51.5373C175.33 51.2441 175.717 51.0557 176.138 51.0105L176.333 51H178Z" fill="white"/>
<path d="M277.4 98V89.5565H274.13V88.64H281.625V89.5565H278.355V98H277.4ZM282.019 98V90.98H282.877V92.67L282.708 92.449C282.786 92.241 282.888 92.0504 283.014 91.877C283.14 91.6994 283.276 91.5542 283.423 91.4415C283.605 91.2812 283.818 91.1599 284.06 91.0775C284.303 90.9909 284.548 90.941 284.795 90.928C285.042 90.9107 285.267 90.928 285.471 90.98V91.877C285.215 91.812 284.936 91.7969 284.632 91.8315C284.329 91.8662 284.05 91.9875 283.794 92.1955C283.56 92.3775 283.384 92.5964 283.267 92.852C283.15 93.1034 283.072 93.372 283.033 93.658C282.994 93.9397 282.975 94.2192 282.975 94.4965V98H282.019ZM289.547 98.195C288.863 98.195 288.269 98.0434 287.766 97.74C287.268 97.4367 286.88 97.0099 286.603 96.4595C286.326 95.9092 286.187 95.2635 286.187 94.5225C286.187 93.7555 286.323 93.0925 286.596 92.5335C286.869 91.9745 287.253 91.5434 287.747 91.24C288.245 90.9367 288.832 90.785 289.508 90.785C290.202 90.785 290.793 90.9454 291.283 91.266C291.773 91.5824 292.143 92.0374 292.394 92.631C292.646 93.2247 292.761 93.9332 292.739 94.7565H291.764V94.4185C291.747 93.5085 291.549 92.8217 291.172 92.358C290.8 91.8944 290.254 91.6625 289.534 91.6625C288.78 91.6625 288.202 91.9074 287.799 92.397C287.4 92.8867 287.201 93.5844 287.201 94.49C287.201 95.374 287.4 96.0609 287.799 96.5505C288.202 97.0359 288.772 97.2785 289.508 97.2785C290.011 97.2785 290.449 97.1637 290.821 96.934C291.198 96.7 291.495 96.3642 291.712 95.9265L292.602 96.271C292.325 96.882 291.916 97.3565 291.374 97.6945C290.837 98.0282 290.228 98.195 289.547 98.195ZM286.863 94.7565V93.957H292.225V94.7565H286.863ZM296.063 98.195C295.534 98.195 295.09 98.0997 294.731 97.909C294.375 97.7184 294.109 97.4649 293.931 97.1485C293.753 96.8322 293.665 96.4877 293.665 96.115C293.665 95.7337 293.74 95.4087 293.892 95.14C294.048 94.867 294.258 94.6439 294.523 94.4705C294.791 94.2972 295.101 94.165 295.452 94.074C295.807 93.9874 296.2 93.9115 296.629 93.8465C297.062 93.7772 297.484 93.7187 297.896 93.671C298.312 93.619 298.676 93.5692 298.988 93.5215L298.65 93.7295C298.663 93.0362 298.529 92.5227 298.247 92.189C297.965 91.8554 297.476 91.6885 296.778 91.6885C296.297 91.6885 295.89 91.7969 295.556 92.0135C295.227 92.2302 294.995 92.5725 294.861 93.0405L293.931 92.7675C294.091 92.1392 294.414 91.6517 294.9 91.305C295.385 90.9584 296.015 90.785 296.791 90.785C297.432 90.785 297.976 90.9064 298.423 91.149C298.873 91.3874 299.192 91.734 299.378 92.189C299.465 92.3927 299.521 92.6202 299.547 92.8715C299.573 93.1229 299.586 93.3785 299.586 93.6385V98H298.735V96.2385L298.982 96.3425C298.743 96.9449 298.373 97.4042 297.87 97.7205C297.367 98.0369 296.765 98.195 296.063 98.195ZM296.174 97.3695C296.62 97.3695 297.01 97.2894 297.344 97.129C297.677 96.9687 297.946 96.7499 298.15 96.4725C298.353 96.1909 298.485 95.8745 298.546 95.5235C298.598 95.2982 298.626 95.0512 298.631 94.7825C298.635 94.5095 298.637 94.3059 298.637 94.1715L299.001 94.36C298.676 94.4034 298.323 94.4467 297.942 94.49C297.565 94.5334 297.192 94.5832 296.824 94.6395C296.46 94.6959 296.13 94.763 295.836 94.841C295.636 94.8974 295.443 94.9775 295.257 95.0815C295.071 95.1812 294.917 95.3155 294.796 95.4845C294.679 95.6535 294.62 95.8637 294.62 96.115C294.62 96.3187 294.67 96.5159 294.77 96.7065C294.874 96.8972 295.038 97.0554 295.264 97.181C295.493 97.3067 295.797 97.3695 296.174 97.3695ZM305.1 98C304.706 98.0824 304.316 98.1149 303.93 98.0975C303.549 98.0802 303.206 97.9979 302.903 97.8505C302.604 97.7032 302.377 97.4735 302.221 97.1615C302.095 96.9015 302.026 96.6394 302.013 96.375C302.004 96.1064 302 95.8009 302 95.4585V89.03H302.949V95.4195C302.949 95.7142 302.951 95.9612 302.955 96.1605C302.964 96.3555 303.009 96.5289 303.092 96.6805C303.248 96.9709 303.495 97.1442 303.833 97.2005C304.175 97.2569 304.597 97.2439 305.1 97.1615V98ZM300.498 91.799V90.98H305.1V91.799H300.498ZM314.855 98L314.862 93.3915C314.862 92.8499 314.71 92.4252 314.407 92.1175C314.108 91.8055 313.726 91.6495 313.263 91.6495C312.998 91.6495 312.741 91.7102 312.489 91.8315C312.238 91.9529 312.03 92.1479 311.865 92.4165C311.705 92.6852 311.625 93.0362 311.625 93.4695L311.059 93.307C311.046 92.8044 311.144 92.3645 311.352 91.9875C311.564 91.6105 311.854 91.318 312.223 91.11C312.595 90.8977 313.016 90.7915 313.484 90.7915C314.19 90.7915 314.756 91.0104 315.18 91.448C315.605 91.8814 315.817 92.4685 315.817 93.2095L315.811 98H314.855ZM306.477 98V90.98H307.335V92.709H307.439V98H306.477ZM310.676 98L310.682 93.4565C310.682 92.8975 310.533 92.4577 310.234 92.137C309.939 91.812 309.549 91.6495 309.064 91.6495C308.578 91.6495 308.186 91.8164 307.887 92.15C307.588 92.4794 307.439 92.9192 307.439 93.4695L306.867 93.1575C306.867 92.7069 306.973 92.3039 307.185 91.9485C307.398 91.5889 307.688 91.3072 308.056 91.1035C308.425 90.8955 308.843 90.7915 309.311 90.7915C309.757 90.7915 310.154 90.8869 310.5 91.0775C310.851 91.2682 311.126 91.5455 311.326 91.9095C311.525 92.2735 311.625 92.7155 311.625 93.2355L311.618 98H310.676ZM320.435 98.195C319.751 98.195 319.157 98.0434 318.654 97.74C318.156 97.4367 317.768 97.0099 317.491 96.4595C317.213 95.9092 317.075 95.2635 317.075 94.5225C317.075 93.7555 317.211 93.0925 317.484 92.5335C317.757 91.9745 318.141 91.5434 318.635 91.24C319.133 90.9367 319.72 90.785 320.396 90.785C321.09 90.785 321.681 90.9454 322.171 91.266C322.66 91.5824 323.031 92.0374 323.282 92.631C323.534 93.2247 323.648 93.9332 323.627 94.7565H322.652V94.4185C322.634 93.5085 322.437 92.8217 322.06 92.358C321.688 91.8944 321.142 91.6625 320.422 91.6625C319.668 91.6625 319.09 91.9074 318.687 92.397C318.288 92.8867 318.089 93.5844 318.089 94.49C318.089 95.374 318.288 96.0609 318.687 96.5505C319.09 97.0359 319.66 97.2785 320.396 97.2785C320.899 97.2785 321.337 97.1637 321.709 96.934C322.086 96.7 322.383 96.3642 322.6 95.9265L323.49 96.271C323.213 96.882 322.803 97.3565 322.262 97.6945C321.724 98.0282 321.116 98.195 320.435 98.195ZM317.751 94.7565V93.957H323.113V94.7565H317.751ZM329.949 98V94.4185C329.949 94.0285 329.912 93.671 329.838 93.346C329.765 93.0167 329.645 92.7307 329.481 92.488C329.32 92.241 329.11 92.0504 328.85 91.916C328.595 91.7817 328.283 91.7145 327.914 91.7145C327.576 91.7145 327.277 91.773 327.017 91.89C326.762 92.007 326.545 92.176 326.367 92.397C326.194 92.6137 326.062 92.878 325.971 93.19C325.88 93.502 325.834 93.8574 325.834 94.256L325.158 94.1065C325.158 93.3872 325.284 92.7827 325.535 92.293C325.787 91.8034 326.133 91.4329 326.575 91.1815C327.017 90.9302 327.524 90.8045 328.096 90.8045C328.517 90.8045 328.883 90.8695 329.195 90.9995C329.511 91.1295 329.778 91.305 329.994 91.526C330.215 91.747 330.393 92.0005 330.527 92.2865C330.662 92.5682 330.759 92.8694 330.82 93.19C330.88 93.5064 330.911 93.8227 330.911 94.139V98H329.949ZM324.872 98V90.98H325.737V92.709H325.834V98H324.872ZM336.42 98C336.025 98.0824 335.635 98.1149 335.25 98.0975C334.868 98.0802 334.526 97.9979 334.223 97.8505C333.924 97.7032 333.696 97.4735 333.54 97.1615C333.414 96.9015 333.345 96.6394 333.332 96.375C333.323 96.1064 333.319 95.8009 333.319 95.4585V89.03H334.268V95.4195C334.268 95.7142 334.27 95.9612 334.275 96.1605C334.283 96.3555 334.329 96.5289 334.411 96.6805C334.567 96.9709 334.814 97.1442 335.152 97.2005C335.494 97.2569 335.917 97.2439 336.42 97.1615V98ZM331.818 91.799V90.98H336.42V91.799H331.818ZM340.422 98.1885C339.599 98.1885 338.921 98.0109 338.388 97.6555C337.859 97.3002 337.534 96.8062 337.413 96.1735L338.388 96.011C338.492 96.4097 338.728 96.7282 339.096 96.9665C339.469 97.2005 339.928 97.3175 340.474 97.3175C341.007 97.3175 341.427 97.207 341.735 96.986C342.043 96.7607 342.197 96.4552 342.197 96.0695C342.197 95.8529 342.147 95.6774 342.047 95.543C341.952 95.4044 341.755 95.2765 341.456 95.1595C341.157 95.0425 340.71 94.9039 340.117 94.7435C339.48 94.5702 338.981 94.3969 338.622 94.2235C338.262 94.0502 338.006 93.8509 337.855 93.6255C337.703 93.3959 337.627 93.1164 337.627 92.787C337.627 92.3884 337.74 92.0395 337.965 91.7405C338.19 91.4372 338.502 91.2032 338.901 91.0385C339.3 90.8695 339.763 90.785 340.292 90.785C340.821 90.785 341.293 90.8717 341.709 91.045C342.129 91.214 342.467 91.4524 342.723 91.76C342.979 92.0677 343.13 92.4252 343.178 92.8325L342.203 93.008C342.138 92.5964 341.932 92.2714 341.586 92.033C341.243 91.7904 340.808 91.6647 340.279 91.656C339.781 91.643 339.376 91.7384 339.064 91.942C338.752 92.1414 338.596 92.4079 338.596 92.7415C338.596 92.9279 338.652 93.0882 338.765 93.2225C338.877 93.3525 339.081 93.476 339.376 93.593C339.675 93.71 340.099 93.8379 340.65 93.9765C341.295 94.1412 341.802 94.3145 342.171 94.4965C342.539 94.6785 342.801 94.893 342.957 95.14C343.113 95.387 343.191 95.6925 343.191 96.0565C343.191 96.7195 342.944 97.2417 342.45 97.623C341.96 98 341.284 98.1885 340.422 98.1885Z" fill="black"/>
<rect x="279.831" y="20.2001" width="61.1944" height="61.1944" rx="8" fill="#6BCBB8"/>
<g clip-path="url(#clip1_9_69)">
<path d="M301.301 64.066C301.301 63.1504 300.977 62.3686 300.329 61.7207C299.681 61.0728 298.898 60.7489 297.982 60.7489C297.066 60.7489 296.284 61.0728 295.636 61.7207C294.988 62.3686 294.663 63.1504 294.663 64.066C294.663 64.9817 294.988 65.7635 295.636 66.4114C296.284 67.0593 297.066 67.3832 297.982 67.3832C298.898 67.3832 299.681 67.0593 300.329 66.4114C300.977 65.7635 301.301 64.9817 301.301 64.066ZM291.345 50.7973H301.301V44.163H297.204C296.962 44.1976 296.772 44.2753 296.634 44.3962L291.578 49.4497C291.457 49.6571 291.379 49.8471 291.345 50.0199V50.7973ZM324.533 64.066C324.533 63.1504 324.209 62.3686 323.561 61.7207C322.913 61.0728 322.131 60.7489 321.214 60.7489C320.298 60.7489 319.516 61.0728 318.868 61.7207C318.22 62.3686 317.896 63.1504 317.896 64.066C317.896 64.9817 318.22 65.7635 318.868 66.4114C319.516 67.0593 320.298 67.3832 321.214 67.3832C322.131 67.3832 322.913 67.0593 323.561 66.4114C324.209 65.7635 324.533 64.9817 324.533 64.066ZM327.852 46.6509V41.6751C327.852 41.4332 327.774 41.2346 327.619 41.0791C327.463 40.9236 327.265 40.8458 327.023 40.8458H321.214V35.0408C321.214 34.7989 321.137 34.6002 320.981 34.4447C320.826 34.2892 320.627 34.2115 320.385 34.2115H315.406C315.164 34.2115 314.966 34.2892 314.81 34.4447C314.654 34.6002 314.577 34.7989 314.577 35.0408V40.8458H308.769C308.527 40.8458 308.328 40.9236 308.172 41.0791C308.017 41.2346 307.939 41.4332 307.939 41.6751V46.6509C307.939 46.8928 308.017 47.0914 308.172 47.2469C308.328 47.4024 308.527 47.4802 308.769 47.4802H314.577V53.2852C314.577 53.5271 314.654 53.7258 314.81 53.8813C314.966 54.0368 315.164 54.1145 315.406 54.1145H320.385C320.627 54.1145 320.826 54.0368 320.981 53.8813C321.137 53.7258 321.214 53.5271 321.214 53.2852V47.4802H327.023C327.265 47.4802 327.463 47.4024 327.619 47.2469C327.774 47.0914 327.852 46.8928 327.852 46.6509ZM334.49 32.5529V62.4075C334.49 62.8567 334.326 63.2454 333.997 63.5737C333.669 63.9019 333.28 64.066 332.831 64.066H327.852C327.852 65.8974 327.204 67.461 325.908 68.7567C324.611 70.0525 323.047 70.7004 321.214 70.7004C319.382 70.7004 317.818 70.0525 316.521 68.7567C315.225 67.461 314.577 65.8974 314.577 64.066H304.62C304.62 65.8974 303.972 67.461 302.675 68.7567C301.379 70.0525 299.815 70.7004 297.982 70.7004C296.15 70.7004 294.586 70.0525 293.289 68.7567C291.993 67.461 291.345 65.8974 291.345 64.066H288.026C287.576 64.066 287.187 63.9019 286.859 63.5737C286.53 63.2454 286.366 62.8567 286.366 62.4075C286.366 61.9583 286.53 61.5695 286.859 61.2413C287.187 60.913 287.576 60.7489 288.026 60.7489V49.9681C288.026 49.5189 288.138 49.0178 288.363 48.465C288.587 47.9121 288.864 47.4715 289.192 47.1433L294.326 42.012C294.655 41.6838 295.096 41.4073 295.649 41.1827C296.202 40.9581 296.703 40.8458 297.153 40.8458H301.301V32.5529C301.301 32.1037 301.465 31.715 301.794 31.3867C302.122 31.0584 302.511 30.8943 302.961 30.8943H332.831C333.28 30.8943 333.669 31.0584 333.997 31.3867C334.326 31.715 334.49 32.1037 334.49 32.5529Z" fill="white"/>
</g>
<defs>
<clipPath id="clip0_9_69">
<rect width="34.459" height="39.4642" fill="white" transform="translate(40.4003 30.8943)"/>
</clipPath>
<clipPath id="clip1_9_69">
<rect width="48.1238" height="39.8061" fill="white" transform="translate(286.366 30.8943)"/>
</clipPath>
</defs>
</svg>
